<svg xmlns="http://www.w3.org/2000/svg" width="649.419" height="209.851" viewBox="0 0 649.419 209.851">
  <path id="Path_1" data-name="Path 1" d="M6.2,0H51.305V-15.5H23.25v-93H6.2ZM96.565-108.5H71.61L54.25,0H69.9L72.85-19.685H93.775L96.72,0h17.205ZM83.08-89.28h.31l8.06,54.87H75.02ZM121.83,0h45.105V-15.5H138.88v-93H121.83Zm69.6-93h29.45v-15.5h-46.5V0h46.5V-15.5h-29.45V-47.275h23.4v-15.5h-23.4ZM279-108.5H255.285V0h14.88V-76.725h.31L282.875,0h16.12l11.47-77.81h.31V0H326.9V-108.5H303.18L291.71-31.465h-.31ZM356.345-93H385.8v-15.5H339.3V0h46.5V-15.5h-29.45V-47.275h23.4v-15.5h-23.4Zm93,93c-1.7-4.03-1.86-7.9-1.86-13.175v-16.74c0-11.315-2.79-19.375-11.315-22.94v-.31c7.6-3.565,11.16-10.695,11.16-21.855v-8.525c0-16.74-7.6-24.955-25.265-24.955h-25.73V0h17.05V-44.175h5.89c7.75,0,11.16,3.72,11.16,13.8v17.05c0,8.835.62,10.54,1.55,13.33ZM421.6-93c6.045,0,8.68,3.41,8.68,11.16v10.695c0,8.68-3.875,11.47-10.23,11.47h-6.665V-93ZM497.55,0h17.515L491.35-60.14l23.715-48.36h-17.05l-22.01,46.965h-.31V-108.5h-17.05V0H475.7V-33.325l5.27-9.92Zm42.315-93h29.45v-15.5h-46.5V0h46.5V-15.5h-29.45V-47.275H563.27v-15.5H539.865Zm38.905-15.5V-93h30.845l-32.4,77.81V0h49.91V-15.5H594.735L627.13-93.31V-108.5ZM637.205,0h17.05V-108.5h-17.05Zm1.085-129.115v14.88h14.88v-14.88Z" transform="translate(-5.941 129.115)" fill="#ffffff"/>
  <path id="Path_2" data-name="Path 2" d="M8.271-2.793H27.581V0H4.941V-39.1h3.33ZM44.419.537a12.614,12.614,0,0,1-6.7-1.826,12.445,12.445,0,0,1-4.659-5.089A15.866,15.866,0,0,1,31.394-13.7v-1.155A17.1,17.1,0,0,1,33.019-22.4a12.927,12.927,0,0,1,4.525-5.277,11.163,11.163,0,0,1,6.284-1.92,10.492,10.492,0,0,1,8.392,3.612q3.1,3.612,3.1,9.869v1.8H34.59v.618a12.167,12.167,0,0,0,2.833,8.231,9.013,9.013,0,0,0,7.13,3.29,10.471,10.471,0,0,0,4.552-.94A10.1,10.1,0,0,0,52.69-6.123L54.7-4.592A11.725,11.725,0,0,1,44.419.537Zm-.591-27.393a8.034,8.034,0,0,0-6.11,2.659A12.282,12.282,0,0,0,34.7-17.053H52.126V-17.4a10.664,10.664,0,0,0-2.39-6.821A7.407,7.407,0,0,0,43.828-26.855ZM66.575-36.5v7.439H72.59v2.632H66.575V-7.063a6.056,6.056,0,0,0,.873,3.6,3.385,3.385,0,0,0,2.914,1.182,19.993,19.993,0,0,0,2.6-.269L73.1.081a10.415,10.415,0,0,1-3.437.457q-3.3,0-4.807-1.92a9.039,9.039,0,0,1-1.5-5.653v-19.39H58.008v-2.632h5.344V-36.5ZM101.836-4.619l8.486-24.438h3.464l-12.407,34-.645,1.5q-2.39,5.291-7.385,5.291a9.015,9.015,0,0,1-2.471-.376L90.852,8.7l1.665.161a5.95,5.95,0,0,0,3.827-1.168,8.867,8.867,0,0,0,2.484-4.015l1.423-3.921L89.294-29.058h3.518Zm15.146-10.339a17.1,17.1,0,0,1,1.625-7.546,12.384,12.384,0,0,1,4.592-5.223,12.37,12.37,0,0,1,6.727-1.866,11.953,11.953,0,0,1,9.4,4.069q3.6,4.069,3.6,10.782v.671A17.249,17.249,0,0,1,141.3-6.486a12.132,12.132,0,0,1-4.579,5.2A12.555,12.555,0,0,1,129.98.537a11.964,11.964,0,0,1-9.386-4.069q-3.612-4.069-3.612-10.782Zm3.223.886a13.185,13.185,0,0,0,2.7,8.553,8.656,8.656,0,0,0,7.076,3.344,8.629,8.629,0,0,0,7.05-3.344,13.619,13.619,0,0,0,2.7-8.822v-.618a14.781,14.781,0,0,0-1.235-6.1,9.926,9.926,0,0,0-3.464-4.283,8.852,8.852,0,0,0-5.1-1.517,8.587,8.587,0,0,0-7.009,3.37,13.641,13.641,0,0,0-2.712,8.822ZM168.25-3.679q-2.9,4.216-9.265,4.216-4.646,0-7.063-2.7t-2.471-7.99V-29.058h3.2v18.5q0,8.3,6.714,8.3,6.982,0,8.835-5.774V-29.058h3.223V0H168.3ZM193.2-26.318a12,12,0,0,0-2.175-.188,7.848,7.848,0,0,0-5.089,1.678,9.193,9.193,0,0,0-2.968,4.874V0h-3.2V-29.058h3.142l.054,4.619a8.546,8.546,0,0,1,8.191-5.156,5.285,5.285,0,0,1,2.122.349ZM229.05-7.385a4.579,4.579,0,0,0-1.92-3.84,14.809,14.809,0,0,0-5.787-2.269,26.11,26.11,0,0,1-6-1.88,8,8,0,0,1-3.169-2.592,6.465,6.465,0,0,1-1.034-3.706,6.914,6.914,0,0,1,2.874-5.68,11.607,11.607,0,0,1,7.358-2.242,11.946,11.946,0,0,1,7.8,2.4,7.714,7.714,0,0,1,2.941,6.271h-3.223a5.2,5.2,0,0,0-2.135-4.243,8.4,8.4,0,0,0-5.385-1.692,8.4,8.4,0,0,0-5.089,1.41,4.351,4.351,0,0,0-1.92,3.666,3.963,3.963,0,0,0,1.6,3.37,16.9,16.9,0,0,0,5.828,2.189,27.39,27.39,0,0,1,6.338,2.122,8.208,8.208,0,0,1,3.129,2.712,6.943,6.943,0,0,1,1.021,3.84,6.96,6.96,0,0,1-2.968,5.881,12.678,12.678,0,0,1-7.748,2.2,13.016,13.016,0,0,1-8.231-2.457,7.564,7.564,0,0,1-3.156-6.217h3.223a5.588,5.588,0,0,0,2.377,4.391,9.715,9.715,0,0,0,5.787,1.571,9.132,9.132,0,0,0,5.425-1.477A4.433,4.433,0,0,0,229.05-7.385Zm33.811-6.848q0,6.794-3.008,10.782A9.58,9.58,0,0,1,251.8.537q-5.962,0-9.131-4.189V11.172h-3.2V-29.058h2.981l.161,4.109a10.312,10.312,0,0,1,9.1-4.646,9.665,9.665,0,0,1,8.177,3.948q2.968,3.948,2.968,10.957Zm-3.223-.564q0-5.559-2.283-8.782a7.361,7.361,0,0,0-6.365-3.223,8.9,8.9,0,0,0-5.076,1.423,8.952,8.952,0,0,0-3.25,4.136V-7.3a8.533,8.533,0,0,0,3.3,3.813,9.526,9.526,0,0,0,5.076,1.316,7.292,7.292,0,0,0,6.324-3.236Q259.639-8.647,259.639-14.8ZM281.23.537a12.614,12.614,0,0,1-6.7-1.826,12.445,12.445,0,0,1-4.659-5.089,15.867,15.867,0,0,1-1.665-7.318v-1.155A17.1,17.1,0,0,1,269.83-22.4a12.926,12.926,0,0,1,4.525-5.277,11.163,11.163,0,0,1,6.284-1.92,10.492,10.492,0,0,1,8.392,3.612q3.1,3.612,3.1,9.869v1.8H271.4v.618a12.167,12.167,0,0,0,2.833,8.231,9.013,9.013,0,0,0,7.13,3.29,10.471,10.471,0,0,0,4.552-.94A10.1,10.1,0,0,0,289.5-6.123l2.014,1.531A11.725,11.725,0,0,1,281.23.537Zm-.591-27.393a8.034,8.034,0,0,0-6.11,2.659,12.282,12.282,0,0,0-3.021,7.144h17.429V-17.4a10.664,10.664,0,0,0-2.39-6.821A7.407,7.407,0,0,0,280.64-26.855ZM316.733,0a15.2,15.2,0,0,1-.618-4.055,11.207,11.207,0,0,1-4.31,3.4,13.2,13.2,0,0,1-5.546,1.2A9.74,9.74,0,0,1,299.479-1.8a7.611,7.611,0,0,1-2.592-5.908,7.777,7.777,0,0,1,3.531-6.714q3.532-2.471,9.843-2.471h5.828v-3.3a6.365,6.365,0,0,0-1.92-4.9,7.937,7.937,0,0,0-5.6-1.786,8.763,8.763,0,0,0-5.559,1.719,5.107,5.107,0,0,0-2.2,4.136l-3.223-.027a7.473,7.473,0,0,1,3.223-6,12.409,12.409,0,0,1,7.922-2.538,11.319,11.319,0,0,1,7.667,2.43,8.721,8.721,0,0,1,2.887,6.781v13.75a17.054,17.054,0,0,0,.886,6.311V0Zm-10.1-2.31a10.789,10.789,0,0,0,5.76-1.558,9.165,9.165,0,0,0,3.693-4.163v-6.392h-5.747a14.4,14.4,0,0,0-7.52,1.759,5.279,5.279,0,0,0-2.712,4.686,5.2,5.2,0,0,0,1.813,4.055A6.829,6.829,0,0,0,306.636-2.31Zm28.118-12.327-3.679,3.545V0h-3.223V-41.25h3.223v26.4l3.035-3.276,11.118-10.93h4.055L336.956-16.812,350.356,0h-3.84ZM358.386,0h-3.223V-29.058h3.223ZM354.6-37.463a2.176,2.176,0,0,1,.591-1.544,2.1,2.1,0,0,1,1.611-.631,2.144,2.144,0,0,1,1.625.631,2.149,2.149,0,0,1,.6,1.544,2.1,2.1,0,0,1-.6,1.531,2.169,2.169,0,0,1-1.625.618,2.124,2.124,0,0,1-1.611-.618A2.129,2.129,0,0,1,354.6-37.463Zm15.576,8.406.107,4.968a11.538,11.538,0,0,1,4.082-4.1,10.608,10.608,0,0,1,5.4-1.41q4.673,0,6.956,2.632t2.31,7.9V0h-3.2V-19.094q-.027-3.894-1.652-5.8t-5.2-1.907a8.129,8.129,0,0,0-5.277,1.866,10.934,10.934,0,0,0-3.4,5.035V0h-3.2V-29.058ZM396.038-14.8q0-6.821,3.021-10.809a9.747,9.747,0,0,1,8.2-3.988,10.106,10.106,0,0,1,9.023,4.727l.161-4.189h3.008V-.591q0,5.613-3.142,8.889a11.241,11.241,0,0,1-8.513,3.276,12.931,12.931,0,0,1-5.787-1.356,11.241,11.241,0,0,1-4.337-3.612l1.8-1.934a10.182,10.182,0,0,0,8.11,4.189,8.249,8.249,0,0,0,6.284-2.377,9.469,9.469,0,0,0,2.336-6.593V-3.76q-3.088,4.3-9,4.3a9.69,9.69,0,0,1-8.11-4.028q-3.062-4.028-3.062-10.876Zm3.25.564q0,5.559,2.229,8.768A7.209,7.209,0,0,0,407.8-2.256a8.588,8.588,0,0,0,8.406-5.317V-21.082a9.166,9.166,0,0,0-3.25-4.257,8.763,8.763,0,0,0-5.1-1.464,7.3,7.3,0,0,0-6.311,3.182Q399.287-20.437,399.287-14.233Zm65.313,0q0,6.794-3.008,10.782A9.606,9.606,0,0,1,453.508.537q-6.069,0-9.185-4.512L444.189,0h-3.008V-41.25h3.2v16.409a10.1,10.1,0,0,1,9.077-4.753,9.7,9.7,0,0,1,8.151,3.934q2.994,3.934,2.994,10.944Zm-3.223-.564q0-5.747-2.229-8.876a7.267,7.267,0,0,0-6.284-3.129,8.845,8.845,0,0,0-5.237,1.517,9.225,9.225,0,0,0-3.25,4.445V-7.734a8.611,8.611,0,0,0,8.54,5.479A7.214,7.214,0,0,0,459.135-5.4Q461.377-8.54,461.377-14.8ZM475.288,0h-3.223V-41.25h3.223Zm6.956-14.958a17.1,17.1,0,0,1,1.625-7.546,12.384,12.384,0,0,1,4.592-5.223,12.37,12.37,0,0,1,6.727-1.866,11.953,11.953,0,0,1,9.4,4.069q3.6,4.069,3.6,10.782v.671a17.249,17.249,0,0,1-1.625,7.587,12.132,12.132,0,0,1-4.579,5.2A12.555,12.555,0,0,1,495.242.537a11.964,11.964,0,0,1-9.386-4.069q-3.612-4.069-3.612-10.782Zm3.223.886a13.185,13.185,0,0,0,2.7,8.553,8.656,8.656,0,0,0,7.076,3.344,8.629,8.629,0,0,0,7.05-3.344,13.619,13.619,0,0,0,2.7-8.822v-.618a14.781,14.781,0,0,0-1.235-6.1,9.926,9.926,0,0,0-3.464-4.283,8.852,8.852,0,0,0-5.1-1.517,8.587,8.587,0,0,0-7.009,3.37,13.641,13.641,0,0,0-2.712,8.822Zm46.755,6.687a4.579,4.579,0,0,0-1.92-3.84,14.808,14.808,0,0,0-5.787-2.269,26.11,26.11,0,0,1-6-1.88,8,8,0,0,1-3.169-2.592,6.466,6.466,0,0,1-1.034-3.706,6.914,6.914,0,0,1,2.874-5.68,11.607,11.607,0,0,1,7.358-2.242,11.946,11.946,0,0,1,7.8,2.4,7.714,7.714,0,0,1,2.941,6.271h-3.223a5.2,5.2,0,0,0-2.135-4.243,8.4,8.4,0,0,0-5.385-1.692,8.4,8.4,0,0,0-5.089,1.41,4.351,4.351,0,0,0-1.92,3.666,3.963,3.963,0,0,0,1.6,3.37,16.9,16.9,0,0,0,5.828,2.189A27.391,27.391,0,0,1,531.3-14.1a8.208,8.208,0,0,1,3.129,2.712,6.943,6.943,0,0,1,1.021,3.84,6.96,6.96,0,0,1-2.968,5.881,12.678,12.678,0,0,1-7.748,2.2A13.016,13.016,0,0,1,516.5-1.92a7.564,7.564,0,0,1-3.156-6.217h3.223a5.588,5.588,0,0,0,2.377,4.391,9.715,9.715,0,0,0,5.787,1.571,9.132,9.132,0,0,0,5.425-1.477A4.433,4.433,0,0,0,532.222-7.385Zm27.849,0a4.579,4.579,0,0,0-1.92-3.84,14.808,14.808,0,0,0-5.787-2.269,26.11,26.11,0,0,1-6-1.88,8,8,0,0,1-3.169-2.592,6.466,6.466,0,0,1-1.034-3.706,6.914,6.914,0,0,1,2.874-5.68,11.607,11.607,0,0,1,7.358-2.242,11.946,11.946,0,0,1,7.8,2.4,7.714,7.714,0,0,1,2.941,6.271H559.91a5.2,5.2,0,0,0-2.135-4.243,8.4,8.4,0,0,0-5.385-1.692,8.4,8.4,0,0,0-5.089,1.41,4.351,4.351,0,0,0-1.92,3.666,3.963,3.963,0,0,0,1.6,3.37,16.9,16.9,0,0,0,5.828,2.189,27.391,27.391,0,0,1,6.338,2.122,8.208,8.208,0,0,1,3.129,2.712,6.943,6.943,0,0,1,1.021,3.84,6.96,6.96,0,0,1-2.968,5.881,12.678,12.678,0,0,1-7.748,2.2,13.016,13.016,0,0,1-8.231-2.457,7.564,7.564,0,0,1-3.156-6.217h3.223a5.588,5.588,0,0,0,2.377,4.391,9.715,9.715,0,0,0,5.787,1.571A9.132,9.132,0,0,0,558-3.652,4.433,4.433,0,0,0,560.071-7.385Zm8.674-7.573A17.1,17.1,0,0,1,570.37-22.5a12.384,12.384,0,0,1,4.592-5.223,12.37,12.37,0,0,1,6.727-1.866,11.953,11.953,0,0,1,9.4,4.069q3.6,4.069,3.6,10.782v.671a17.249,17.249,0,0,1-1.625,7.587,12.132,12.132,0,0,1-4.579,5.2A12.555,12.555,0,0,1,581.743.537a11.964,11.964,0,0,1-9.386-4.069q-3.612-4.069-3.612-10.782Zm3.223.886a13.185,13.185,0,0,0,2.7,8.553,8.656,8.656,0,0,0,7.076,3.344,8.629,8.629,0,0,0,7.05-3.344,13.619,13.619,0,0,0,2.7-8.822v-.618a14.782,14.782,0,0,0-1.235-6.1,9.926,9.926,0,0,0-3.464-4.283,8.852,8.852,0,0,0-5.1-1.517,8.587,8.587,0,0,0-7.009,3.37,13.641,13.641,0,0,0-2.712,8.822Zm32.28-14.985.107,4.727a10.756,10.756,0,0,1,4.028-3.948,11.047,11.047,0,0,1,5.371-1.316q6.875,0,8.728,5.64a10.909,10.909,0,0,1,4.163-4.176,11.531,11.531,0,0,1,5.747-1.464q9.346,0,9.534,10.205V0H638.7V-19.148q-.027-3.894-1.678-5.774t-5.385-1.88a8.558,8.558,0,0,0-5.854,2.242,7.924,7.924,0,0,0-2.659,5.331V0H619.9V-19.39q-.027-3.733-1.759-5.573t-5.331-1.84a8.106,8.106,0,0,0-5.21,1.732,10.158,10.158,0,0,0-3.223,5.143V0H601.16V-29.058Zm45.52,27.124a2.277,2.277,0,0,1,.6-1.6,2.165,2.165,0,0,1,1.678-.658,2.208,2.208,0,0,1,1.692.658,2.249,2.249,0,0,1,.618,1.6,2.067,2.067,0,0,1-.618,1.544,2.316,2.316,0,0,1-1.692.6,2.269,2.269,0,0,1-1.678-.6A2.091,2.091,0,0,1,649.768-1.934Z" transform="translate(-4.941 198.115)" fill="#ffffff"/>
</svg>
